<svg xmlns="http://www.w3.org/2000/svg" width="50" height="37.5" viewBox="0 0 50 37.5">
  <path id="chart-line" d="M48.438,95.25H6.25V65.563A1.562,1.562,0,0,0,4.688,64H1.563A1.562,1.562,0,0,0,0,65.563V98.375A3.125,3.125,0,0,0,3.125,101.5H48.438A1.562,1.562,0,0,0,50,99.938V96.813A1.562,1.562,0,0,0,48.438,95.25ZM45.313,67.125H33.783a2.344,2.344,0,0,0-1.657,4L35.29,74.29l-7.165,7.166L20.96,74.291a3.124,3.124,0,0,0-4.419,0L9.833,81a1.563,1.563,0,0,0,0,2.21l2.209,2.209a1.563,1.563,0,0,0,2.21,0l4.5-4.5,7.165,7.165a3.124,3.124,0,0,0,4.419,0l9.375-9.375,3.164,3.164a2.344,2.344,0,0,0,4-1.657V68.688A1.561,1.561,0,0,0,45.313,67.125Z" transform="translate(0 -64)" fill="#424242"/>
</svg>
