<svg xmlns="http://www.w3.org/2000/svg" width="50" height="43.744" viewBox="0 0 50 43.744">
  <path id="comment-dots" d="M14,49.185a3.125,3.125,0,1,0,3.125,3.125A3.121,3.121,0,0,0,14,49.185Zm10.936,0a3.125,3.125,0,1,0,3.125,3.125A3.121,3.121,0,0,0,24.937,49.185Zm10.936,0A3.125,3.125,0,1,0,39,52.31,3.121,3.121,0,0,0,35.873,49.185ZM24.937,32c-13.807,0-25,9.091-25,20.31A17.949,17.949,0,0,0,5.105,64.642,24.778,24.778,0,0,1,.575,71.79a2.344,2.344,0,0,0,1.709,3.955,23.692,23.692,0,0,0,13.582-4.521,30.157,30.157,0,0,0,9.071,1.4c13.807,0,25-9.091,25-20.31S38.744,32,24.937,32Zm0,35.933a25.373,25.373,0,0,1-7.655-1.181l-2.217-.7-1.9,1.347a21,21,0,0,1-5.615,2.832A24.491,24.491,0,0,0,9.49,66.3l1.035-2.744L8.513,61.43a13.43,13.43,0,0,1-3.886-9.12c0-8.612,9.11-15.623,20.31-15.623S45.247,43.7,45.247,52.31,36.137,67.933,24.937,67.933Z" transform="translate(0.066 -32)" fill="#424242"/>
</svg>
