<svg xmlns="http://www.w3.org/2000/svg" width="45" height="51.429" viewBox="0 0 45 51.429">
  <path id="database" d="M45,7.347v4.592c0,4.047-10.078,7.347-22.5,7.347S0,15.985,0,11.939V7.347C0,3.3,10.078,0,22.5,0S45,3.3,45,7.347Zm0,10.332V28.01c0,4.047-10.078,7.347-22.5,7.347S0,32.057,0,28.01V17.679c4.834,3.329,13.682,4.879,22.5,4.879S40.166,21.008,45,17.679ZM45,33.75V44.082c0,4.047-10.078,7.347-22.5,7.347S0,48.128,0,44.082V33.75c4.834,3.329,13.682,4.879,22.5,4.879S40.166,37.079,45,33.75Z" fill="#424242"/>
</svg>
