<svg xmlns="http://www.w3.org/2000/svg" width="50" height="44.436" viewBox="0 0 50 44.436">
  <path id="edit" d="M34.948,7.314l7.83,7.83a.849.849,0,0,1,0,1.2L23.819,35.3l-8.056.894A1.688,1.688,0,0,1,13.9,34.327l.894-8.056L33.75,7.314A.849.849,0,0,1,34.948,7.314ZM49.01,5.326,44.774,1.09a3.4,3.4,0,0,0-4.792,0L36.91,4.162a.849.849,0,0,0,0,1.2l7.83,7.83a.849.849,0,0,0,1.2,0l3.073-3.073a3.4,3.4,0,0,0,0-4.792ZM33.333,30.143V38.98H5.556V11.2H25.5a1.067,1.067,0,0,0,.738-.3l3.472-3.472a1.042,1.042,0,0,0-.738-1.78H4.167A4.168,4.168,0,0,0,0,9.814V40.369a4.168,4.168,0,0,0,4.167,4.167H34.722a4.168,4.168,0,0,0,4.167-4.167v-13.7a1.044,1.044,0,0,0-1.78-.738l-3.472,3.472A1.067,1.067,0,0,0,33.333,30.143Z" transform="translate(0 -0.1)" fill="#424242"/>
</svg>
