<svg xmlns="http://www.w3.org/2000/svg" width="50" height="38.882" viewBox="0 0 50 38.882">
  <path id="home" d="M24.322,42.137l-16,13.18V69.543a1.389,1.389,0,0,0,1.389,1.389l9.727-.025a1.389,1.389,0,0,0,1.382-1.389V61.21A1.389,1.389,0,0,1,22.2,59.821H27.76c.767,0,1.389,1.389,1.389,1.389v8.3A1.389,1.389,0,0,0,30.537,70.9l9.723.027a1.389,1.389,0,0,0,1.389-1.389V55.308l-16-13.171a1.058,1.058,0,0,0-1.328,0ZM49.6,51.1l-7.256-5.981V33.092A1.042,1.042,0,0,0,41.3,32.05H36.442A1.042,1.042,0,0,0,35.4,33.092v6.3L27.629,33a4.166,4.166,0,0,0-5.295,0L.363,51.1a1.042,1.042,0,0,0-.139,1.467l2.213,2.691a1.042,1.042,0,0,0,1.468.141L24.322,38.578a1.058,1.058,0,0,1,1.328,0L46.068,55.395a1.042,1.042,0,0,0,1.467-.139l2.213-2.691A1.042,1.042,0,0,0,49.6,51.1Z" transform="translate(0.015 -32.05)" fill="#424242"/>
</svg>
