<svg xmlns="http://www.w3.org/2000/svg" width="75" height="75" viewBox="0 0 75 75">
  <path id="plus-circle" d="M45.5,8A37.5,37.5,0,1,0,83,45.5,37.494,37.494,0,0,0,45.5,8ZM67.274,49.734a1.82,1.82,0,0,1-1.815,1.815H51.548V65.46a1.82,1.82,0,0,1-1.815,1.815H41.266a1.82,1.82,0,0,1-1.815-1.815V51.548H25.54a1.82,1.82,0,0,1-1.815-1.815V41.266a1.82,1.82,0,0,1,1.815-1.815H39.452V25.54a1.82,1.82,0,0,1,1.815-1.815h8.468a1.82,1.82,0,0,1,1.815,1.815V39.452H65.46a1.82,1.82,0,0,1,1.815,1.815Z" transform="translate(-8 -8)" fill="#87e12d"/>
</svg>
