<svg xmlns="http://www.w3.org/2000/svg" width="50" height="50.002" viewBox="0 0 50 50.002">
  <path id="tools" d="M48.888,38.64,37.453,27.206a7.251,7.251,0,0,0-8.339-1.357L18.7,15.439V9.374L6.2,0-.045,6.25l9.374,12.5h6.064L25.8,29.159A7.266,7.266,0,0,0,27.16,37.5L38.6,48.933a3.631,3.631,0,0,0,5.146,0l5.146-5.146a3.648,3.648,0,0,0,0-5.146ZM32.346,21.971A10.274,10.274,0,0,1,39.66,25l1.894,1.894a13.823,13.823,0,0,0,4.277-2.881,14.043,14.043,0,0,0,3.7-13.349,1.169,1.169,0,0,0-1.963-.537L40.3,17.392l-6.63-1.1-1.1-6.63,7.265-7.265A1.179,1.179,0,0,0,39.279.42a14.067,14.067,0,0,0-13.339,3.7,13.838,13.838,0,0,0-4.023,10.117l8.017,8.017a10.638,10.638,0,0,1,2.412-.283ZM22.2,29.979l-5.537-5.537L1.781,39.334a6.249,6.249,0,0,0,8.837,8.837L22.688,36.1a10.486,10.486,0,0,1-.488-6.123ZM6.2,46.091a2.344,2.344,0,1,1,2.344-2.344A2.351,2.351,0,0,1,6.2,46.091Z" transform="translate(0.05)" fill="#424242"/>
</svg>
