<svg xmlns="http://www.w3.org/2000/svg" width="50" height="57.143" viewBox="0 0 50 57.143">
  <path id="trash-alt" d="M3.571,51.786a5.357,5.357,0,0,0,5.357,5.357H41.071a5.357,5.357,0,0,0,5.357-5.357v-37.5H3.571ZM33.929,23.214a1.786,1.786,0,0,1,3.571,0v25a1.786,1.786,0,0,1-3.571,0Zm-10.714,0a1.786,1.786,0,0,1,3.571,0v25a1.786,1.786,0,0,1-3.571,0Zm-10.714,0a1.786,1.786,0,0,1,3.571,0v25a1.786,1.786,0,0,1-3.571,0ZM48.214,3.571H34.821L33.772,1.484A2.679,2.679,0,0,0,31.373,0H18.616a2.647,2.647,0,0,0-2.388,1.484L15.179,3.571H1.786A1.786,1.786,0,0,0,0,5.357V8.928a1.786,1.786,0,0,0,1.786,1.786H48.214A1.786,1.786,0,0,0,50,8.928V5.357A1.786,1.786,0,0,0,48.214,3.571Z" transform="translate(0 0)" fill="#f80000"/>
</svg>
