<svg xmlns="http://www.w3.org/2000/svg" width="60" height="42" viewBox="0 0 60 42">
  <path id="user-friends" d="M18,53A10.5,10.5,0,1,0,7.5,42.5,10.495,10.495,0,0,0,18,53Zm7.2,3h-.778a14.5,14.5,0,0,1-12.844,0H10.8A10.8,10.8,0,0,0,0,66.8v2.7A4.5,4.5,0,0,0,4.5,74h27A4.5,4.5,0,0,0,36,69.5V66.8A10.8,10.8,0,0,0,25.2,56ZM45,53a9,9,0,1,0-9-9A9,9,0,0,0,45,53Zm4.5,3h-.356a11.822,11.822,0,0,1-8.288,0H40.5a10.413,10.413,0,0,0-5.222,1.444A13.72,13.72,0,0,1,39,66.8v3.6c0,.206-.047.4-.056.6H55.5A4.5,4.5,0,0,0,60,66.5,10.5,10.5,0,0,0,49.5,56Z" transform="translate(0 -32)" fill="#424242"/>
</svg>
